# xmcd
#
# Track frame offsets:
#	183
#	13410
#	24973
#	38260
#	57520
#	73565
#	90048
#	99898
#	116015
#	126928
#	140773
#	154523
#	167725
#	180778
#	194628
#	211070
#	230798
#	249590
#	263253
#	273533
#
# Disc length: 3864 seconds
#
# Revision: 5
# Processed by: cddbd v1.5.2PL0 Copyright (c) Steve Scherf et al.
# Submitted via: VUPlayer 2.49
#
DISCID=050f1614
DTITLE=Various Artist - 20 Original Country Greats
DYEAR=1989
DGENRE=Country
TTITLE0=Glen Campbell - Southern Nights =1977=
TTITLE1=Crystal Gayle - Don't it Make My Brown Eyes Blue =1977=
TTITLE2=Dr. Hook - When You're in Love with A Beuatiful Woman =1979=
TTITLE3=Bobbie Gentry - Ode To Billy Joe =1967=
TTITLE4=Billie Jo Spears - Blanket On the Ground =1975=
TTITLE5=Kenny Rogers - Lucille =1976=
TTITLE6=Anne Murray - Snowbird =1970=
TTITLE7=Joe South - Games People Play =1969=
TTITLE8=Willie Nelson - Hello Walls =1975=
TTITLE9=Jean Shepard - It Keeps Right On A-Hurting =1975=
TTITLE10=Dr. Hook - Sexy Eyes =1979=
TTITLE11=Crystal Gayle - Talking in Your Sleep =1978=
TTITLE12=Bobbie Gentry - I'll Never Fall in Love Again =1969=
TTITLE13=Glen Campbell - Wichita Lineman =1968=
TTITLE14=Anne Murray - You Needed Me =1978=
TTITLE15=Kenny Rogers - Coward of the County =1979=
TTITLE16=Juice Newton - Angel of the Morning =1981=
TTITLE17=John Stewart - July, You're A Woman =1969=
TTITLE18=Willie Nelson - There'll Be No Teardrops Tonight =1975=
TTITLE19=Billie Jo Spears - Sing Me A Old Fashioned Song =1976=
EXTD=
EXTT0=
EXTT1=
EXTT2=
EXTT3=
EXTT4=
EXTT5=
EXTT6=
EXTT7=
EXTT8=
EXTT9=
EXTT10=
EXTT11=
EXTT12=
EXTT13=
EXTT14=
EXTT15=
EXTT16=
EXTT17=
EXTT18=
EXTT19=
PLAYORDER=
